<svg width="128" height="18" viewBox="0 0 128 18" fill="none" xmlns="http://www.w3.org/2000/svg">
<path d="M8.27661 4.72332V8.25357H7.28179C5.1209 8.25357 3.87737 9.32223 3.87737 11.7349V17.7022L1.93869 16.4296L0 17.7022V4.8722H3.77748V7.25833C4.32381 5.66757 5.51638 4.67233 7.4306 4.67233C7.72823 4.67233 8.0014 4.69681 8.27457 4.72128L8.27661 4.72332Z" fill="black"/>
<path d="M8.22768 11.2862C8.22768 7.23385 10.8371 4.57443 14.8367 4.57443C18.8364 4.57443 21.4458 7.33378 21.4458 11.6594V12.4303H11.9542C12.2274 14.2943 13.371 15.1407 14.8857 15.1407C16.1537 15.1407 17.0221 14.6186 17.4706 13.6988H21.1482C20.453 16.3848 17.968 18 14.8857 18C10.9104 18 8.22565 15.365 8.22565 11.2882L8.22768 11.2862ZM17.6704 9.96872C17.3972 8.37797 16.3779 7.43371 14.7878 7.43371C13.371 7.43371 12.2783 8.20462 11.9807 9.96872H17.6704Z" fill="black"/>
<path d="M22.1185 11.2862C22.1185 7.20937 24.679 4.57443 28.7031 4.57443C32.2319 4.57443 34.617 6.5384 34.9656 9.69544H31.1148C30.8905 8.32902 29.9467 7.73147 28.7052 7.73147C27.0661 7.73147 26.0469 8.8246 26.0469 11.2862C26.0469 13.7478 27.0906 14.8164 28.7052 14.8164C29.9976 14.8164 31.0169 14.1699 31.1902 12.6526H35.041C34.7679 15.9585 32.2584 17.998 28.7052 17.998C24.7034 17.998 22.1206 15.363 22.1206 11.2862H22.1185Z" fill="black"/>
<path d="M35.463 11.2862C35.463 7.20937 38.0968 4.57443 42.1964 4.57443C46.296 4.57443 48.9054 7.20937 48.9054 11.2862C48.9054 15.363 46.2715 17.998 42.1964 17.998C38.1213 17.998 35.463 15.363 35.463 11.2862ZM44.9811 11.2862C44.9811 8.84908 43.9129 7.68048 42.1985 7.68048C40.484 7.68048 39.3913 8.84908 39.3913 11.2862C39.3913 13.7233 40.4596 14.8919 42.1985 14.8919C43.9374 14.8919 44.9811 13.7233 44.9811 11.2862Z" fill="black"/>
<path d="M69.9027 9.37321V17.7022H66.0253V10.0442C66.0253 8.65125 65.479 7.88035 64.1111 7.88035C62.943 7.88035 61.8992 8.65125 61.8992 10.6152V17.7002H58.0219V10.0442C58.0219 8.65125 57.4755 7.88035 56.1076 7.88035C54.9395 7.88035 53.8713 8.65125 53.8713 10.6152V17.7002H49.994V4.87219H53.7714V6.68728C54.5909 5.46974 55.7346 4.57443 57.4246 4.57443C59.2878 4.57443 60.7046 5.39428 61.3998 6.88714C62.2702 5.59415 63.6361 4.57443 65.4015 4.57443C68.1597 4.57443 69.8986 6.28959 69.8986 9.37321H69.9027Z" fill="black"/>
<path d="M68.6571 9.53024L69.5092 7.11148C70.4347 5.61658 71.7639 4.57443 73.4539 4.57443C75.3171 4.57443 76.7339 5.39428 77.4291 6.88714C78.2996 5.59415 79.6654 4.57443 81.4308 4.57443C84.189 4.57443 85.9279 6.28959 85.9279 9.37321V17.7022H82.0505V10.0442C82.0505 8.65125 81.5042 7.88035 80.1363 7.88035C78.9682 7.88035 77.9245 8.65125 77.9245 10.6152V17.7002H74.0471V10.0442C74.0471 8.65125 73.5008 7.88035 72.1329 7.88035C70.9648 7.88035 69.8966 8.65125 69.8966 10.6152V17.7002" fill="black"/>
<path d="M87.0226 11.2862C87.0226 7.23385 89.632 4.57443 93.6317 4.57443C97.6313 4.57443 100.241 7.33378 100.241 11.6594V12.4303H90.7491C91.0223 14.2943 92.1659 15.1407 93.6806 15.1407C94.9486 15.1407 95.817 14.6186 96.2655 13.6988H99.9431C99.2479 16.3848 96.7629 18 93.6806 18C89.7054 18 87.0206 15.365 87.0206 11.2882L87.0226 11.2862ZM96.4653 9.96872C96.1921 8.37797 95.1728 7.43371 93.5827 7.43371C92.1659 7.43371 91.0733 8.20462 90.7756 9.96872H96.4653Z" fill="black"/>
<path d="M113.685 9.29775V17.7002H109.808V10.0687C109.808 8.65125 109.186 7.88035 107.745 7.88035C106.552 7.88035 105.309 8.65125 105.309 10.5398V17.7002H101.431V4.87219H105.209V6.68728C106.053 5.49421 107.37 4.57443 109.235 4.57443C111.769 4.57443 113.683 6.11624 113.683 9.29775H113.685Z" fill="black"/>
<path d="M124.123 0H128V17.7002H124.223V16.034C123.403 17.2515 122.159 17.998 120.372 17.998C116.892 17.998 114.78 15.363 114.78 11.2862C114.78 7.20938 116.892 4.57444 120.372 4.57444C122.086 4.57444 123.303 5.26988 124.125 6.414V0H124.123ZM124.198 11.2862C124.198 8.84908 123.179 7.68049 121.44 7.68049C119.701 7.68049 118.706 8.94901 118.706 11.3841C118.706 13.8192 119.725 14.8899 121.44 14.8899C123.154 14.8899 124.198 13.7213 124.198 11.2842V11.2862Z" fill="black"/>
</svg>
